<svg width="32" height="32" viewBox="0 0 32 32" fill="none" xmlns="http://www.w3.org/2000/svg">
<g opacity="0.5">
<path d="M30 13.25V22.875C30 23.969 29.5575 25.0182 28.7698 25.7918C27.9822 26.5654 26.9139 27 25.8 27H6.2C5.08609 27 4.0178 26.5654 3.23015 25.7918C2.4425 25.0182 2 23.969 2 22.875V13.25H30ZM24.4 18.75H20.2C19.8287 18.75 19.4726 18.8949 19.2101 19.1527C18.9475 19.4106 18.8 19.7603 18.8 20.125C18.8 20.4897 18.9475 20.8394 19.2101 21.0973C19.4726 21.3551 19.8287 21.5 20.2 21.5H24.4C24.7713 21.5 25.1274 21.3551 25.3899 21.0973C25.6525 20.8394 25.8 20.4897 25.8 20.125C25.8 19.7603 25.6525 19.4106 25.3899 19.1527C25.1274 18.8949 24.7713 18.75 24.4 18.75ZM25.8 5C26.9139 5 27.9822 5.4346 28.7698 6.20818C29.5575 6.98177 30 8.03098 30 9.125V10.5H2V9.125C2 8.03098 2.4425 6.98177 3.23015 6.20818C4.0178 5.4346 5.08609 5 6.2 5H25.8Z" fill="#FFC93E"/>
</g>
</svg>
