<svg width="32" height="32" viewBox="0 0 32 32" fill="none" xmlns="http://www.w3.org/2000/svg">
<g opacity="0.5">
<path fill-rule="evenodd" clip-rule="evenodd" d="M16.8933 2.956L28.2267 9.28933C28.5594 9.45543 28.8392 9.71098 29.0347 10.0273C29.2301 10.3436 29.3336 10.7082 29.3333 11.08V13C29.3333 13.92 28.5867 14.6667 27.6667 14.6667H26.6667V25.3333H28C28.3536 25.3333 28.6928 25.4738 28.9428 25.7239C29.1929 25.9739 29.3333 26.313 29.3333 26.6667C29.3333 27.0203 29.1929 27.3594 28.9428 27.6095C28.6928 27.8595 28.3536 28 28 28H4.00001C3.64638 28 3.30724 27.8595 3.0572 27.6095C2.80715 27.3594 2.66667 27.0203 2.66667 26.6667C2.66667 26.313 2.80715 25.9739 3.0572 25.7239C3.30724 25.4738 3.64638 25.3333 4.00001 25.3333H5.33334V14.6667H4.33334C3.41334 14.6667 2.66667 13.92 2.66667 13V11.08C2.66667 10.384 3.02667 9.744 3.60801 9.38133L15.1053 2.956C15.3831 2.81707 15.6894 2.74474 16 2.74474C16.3106 2.74474 16.6156 2.81707 16.8933 2.956ZM22.6667 14.6667H9.33334V25.3333H12V17.3333H14.6667V25.3333H17.3333V17.3333H20V25.3333H22.6667V14.6667ZM16 8C15.6464 8 15.3072 8.14048 15.0572 8.39053C14.8071 8.64057 14.6667 8.97971 14.6667 9.33333C14.6667 9.68696 14.8071 10.0261 15.0572 10.2761C15.3072 10.5262 15.6464 10.6667 16 10.6667C16.3536 10.6667 16.6928 10.5262 16.9428 10.2761C17.1929 10.0261 17.3333 9.68696 17.3333 9.33333C17.3333 8.97971 17.1929 8.64057 16.9428 8.39053C16.6928 8.14048 16.3536 8 16 8Z" fill="#FFC93E"/>
</g>
</svg>
