<svg width="32" height="32" viewBox="0 0 32 32" fill="none" xmlns="http://www.w3.org/2000/svg">
<g opacity="0.5">
<path d="M15.9867 2.66666C8.62666 2.66666 2.66666 8.64 2.66666 16C2.66666 23.36 8.62666 29.3333 15.9867 29.3333C23.36 29.3333 29.3333 23.36 29.3333 16C29.3333 8.64 23.36 2.66666 15.9867 2.66666ZM20.2933 23.1867L16 20.6L11.7067 23.1867C11.5943 23.2548 11.4644 23.2884 11.3331 23.2832C11.2019 23.2781 11.075 23.2344 10.9684 23.1576C10.8618 23.0808 10.7801 22.9744 10.7336 22.8515C10.687 22.7287 10.6777 22.5948 10.7067 22.4667L11.84 17.5867L8.06666 14.32C7.96864 14.2327 7.89828 14.1186 7.86423 13.9919C7.83019 13.8651 7.83393 13.7311 7.87502 13.6065C7.9161 13.4818 7.99273 13.3719 8.09548 13.2902C8.19822 13.2085 8.3226 13.1586 8.45332 13.1467L13.44 12.72L15.3867 8.12C15.6133 7.57333 16.3867 7.57333 16.6133 8.12L18.56 12.7067L23.5467 13.1333C23.6779 13.1446 23.8029 13.1945 23.9058 13.2768C24.0087 13.359 24.0849 13.4699 24.1249 13.5954C24.1648 13.7209 24.1667 13.8555 24.1302 13.9821C24.0937 14.1087 24.0206 14.2216 23.92 14.3067L20.1467 17.5733L21.28 22.4667C21.4133 23.04 20.8 23.4933 20.2933 23.1867Z" fill="#FFC93E"/>
</g>
</svg>
