<svg width="32" height="32" viewBox="0 0 32 32" fill="none" xmlns="http://www.w3.org/2000/svg">
<g opacity="0.5">
<path fill-rule="evenodd" clip-rule="evenodd" d="M19.2627 1.47466C19.5787 1.63286 19.819 1.91004 19.9307 2.24531C20.0425 2.58058 20.0166 2.9465 19.8587 3.26266L18.824 5.33333H24C24.7072 5.33333 25.3855 5.61428 25.8856 6.11438C26.3857 6.61448 26.6667 7.29275 26.6667 8V26.6667C26.6667 27.3739 26.3857 28.0522 25.8856 28.5523C25.3855 29.0524 24.7072 29.3333 24 29.3333H8C7.29276 29.3333 6.61448 29.0524 6.11438 28.5523C5.61429 28.0522 5.33334 27.3739 5.33334 26.6667V8C5.33334 7.29275 5.61429 6.61448 6.11438 6.11438C6.61448 5.61428 7.29276 5.33333 8 5.33333H13.176L12.1413 3.26266C11.996 2.94811 11.9789 2.58936 12.0935 2.26238C12.2082 1.93541 12.4456 1.6659 12.7555 1.51095C13.0654 1.35599 13.4234 1.32777 13.7538 1.43224C14.0842 1.53672 14.3609 1.76569 14.5253 2.07066L16 5.01733L17.4747 2.07066C17.6329 1.75465 17.9101 1.51436 18.2453 1.40261C18.5806 1.29085 18.9465 1.31677 19.2627 1.47466ZM18 18.6667H14C13.1537 18.6665 12.3391 18.9883 11.7213 19.5667C11.1035 20.1451 10.7289 20.9369 10.6733 21.7813L10.6667 22V22.6667C10.667 23.0065 10.7972 23.3334 11.0305 23.5805C11.2638 23.8276 11.5826 23.9763 11.9219 23.9962C12.2611 24.0161 12.5952 23.9058 12.8558 23.6876C13.1164 23.4695 13.2839 23.1601 13.324 22.8227L13.3333 22.6667V22C13.3333 21.844 13.388 21.6929 13.4879 21.573C13.5877 21.4531 13.7265 21.3721 13.88 21.344L14 21.3333H18C18.156 21.3333 18.3071 21.388 18.427 21.4878C18.5469 21.5877 18.6279 21.7265 18.656 21.88L18.6667 22V22.6667C18.667 23.0065 18.7972 23.3334 19.0305 23.5805C19.2638 23.8276 19.5826 23.9763 19.9219 23.9962C20.2611 24.0161 20.5952 23.9058 20.8558 23.6876C21.1164 23.4695 21.2839 23.1601 21.324 22.8227L21.3333 22.6667V22C21.3335 21.1537 21.0117 20.339 20.4333 19.7213C19.8549 19.1035 19.0631 18.7288 18.2187 18.6733L18 18.6667ZM16 12C15.2928 12 14.6145 12.2809 14.1144 12.781C13.6143 13.2811 13.3333 13.9594 13.3333 14.6667C13.3333 15.3739 13.6143 16.0522 14.1144 16.5523C14.6145 17.0524 15.2928 17.3333 16 17.3333C16.7072 17.3333 17.3855 17.0524 17.8856 16.5523C18.3857 16.0522 18.6667 15.3739 18.6667 14.6667C18.6667 13.9594 18.3857 13.2811 17.8856 12.781C17.3855 12.2809 16.7072 12 16 12Z" fill="#FFC93E"/>
</g>
</svg>
