<svg width="26" height="26" viewBox="0 0 26 26" fill="none" xmlns="http://www.w3.org/2000/svg">
<path d="M7.27992 18.0267C7.55574 17.9462 7.85223 17.9786 8.10415 18.1168C8.35608 18.2549 8.5428 18.4875 8.62325 18.7633C8.7037 19.0392 8.67128 19.3356 8.53313 19.5876C8.39498 19.8395 8.16241 20.0262 7.88659 20.1067C7.34492 20.2648 6.95492 20.4317 6.70467 20.5833C6.9625 20.7383 7.36984 20.9116 7.93534 21.073C9.18659 21.4305 10.9773 21.6667 12.9999 21.6667C15.0225 21.6667 16.8133 21.4305 18.0645 21.073C18.6311 20.9116 19.0373 20.7383 19.2952 20.5833C19.046 20.4317 18.656 20.2648 18.1143 20.1067C17.8429 20.0227 17.6152 19.8354 17.4806 19.5851C17.3459 19.3349 17.3149 19.0417 17.3944 18.7689C17.4738 18.496 17.6573 18.2653 17.9052 18.1265C18.1532 17.9877 18.4458 17.9518 18.7199 18.0267C19.4436 18.2379 20.1066 18.5088 20.6158 18.8565C21.087 19.1804 21.6666 19.7448 21.6666 20.5833C21.6666 21.4316 21.0729 22.0003 20.5941 22.3243C20.0763 22.6731 19.3992 22.945 18.6593 23.1563C17.1664 23.5842 15.1666 23.8333 12.9999 23.8333C10.8333 23.8333 8.83342 23.5842 7.34059 23.1563C6.60067 22.945 5.92359 22.6731 5.40575 22.3243C4.92692 21.9993 4.33325 21.4316 4.33325 20.5833C4.33325 19.7448 4.91284 19.1804 5.38409 18.8565C5.89325 18.5088 6.55625 18.2379 7.27992 18.0267ZM12.9999 2.16667C15.1548 2.16667 17.2214 3.02269 18.7452 4.54643C20.2689 6.07016 21.1249 8.13678 21.1249 10.2917C21.1249 13.0737 19.6083 15.3357 18.0374 16.9433C17.413 17.5759 16.742 18.1608 16.03 18.6929C15.3865 19.1761 13.9153 20.0818 13.9153 20.0818C13.6363 20.2404 13.3209 20.3237 12.9999 20.3237C12.679 20.3237 12.3635 20.2404 12.0845 20.0818C11.3541 19.6589 10.6481 19.1952 9.96984 18.6929C9.25759 18.1611 8.58654 17.5763 7.96242 16.9433C6.39159 15.3357 4.87492 13.0737 4.87492 10.2917C4.87492 8.13678 5.73094 6.07016 7.25468 4.54643C8.77841 3.02269 10.845 2.16667 12.9999 2.16667ZM12.9999 8.125C12.4253 8.125 11.8742 8.35328 11.4679 8.7596C11.0615 9.16593 10.8333 9.71703 10.8333 10.2917C10.8333 10.8663 11.0615 11.4174 11.4679 11.8237C11.8742 12.2301 12.4253 12.4583 12.9999 12.4583C13.5746 12.4583 14.1257 12.2301 14.532 11.8237C14.9383 11.4174 15.1666 10.8663 15.1666 10.2917C15.1666 9.71703 14.9383 9.16593 14.532 8.7596C14.1257 8.35328 13.5746 8.125 12.9999 8.125Z" fill="white" fill-opacity="0.5"/>
</svg>
