<svg width="23" height="42" viewBox="0 0 23 42" fill="none" xmlns="http://www.w3.org/2000/svg">
<g clip-path="url(#clip0_4889_29939)">
<path d="M18.7693 0.5H4.23071C1.89299 0.5 0 2.39813 0 4.74218V37.2602C0 39.6019 1.89299 41.5023 4.23071 41.5023H18.7716C21.107 41.5023 23.0023 39.6042 23.0023 37.2602V4.74218C23.0023 2.40046 21.1093 0.5 18.7716 0.5H18.7693ZM11.5 39.8984C10.7223 39.8984 10.0936 39.2657 10.0936 38.4882C10.0936 37.7108 10.7246 37.078 11.5 37.078C12.2754 37.078 12.9064 37.7108 12.9064 38.4882C12.9064 39.2657 12.2754 39.8984 11.5 39.8984ZM21.1373 35.9877H1.86273V4.74218C1.86273 3.43241 2.92215 2.36778 4.23071 2.36778H7.09698C7.89097 2.36778 8.61976 2.76468 9.09243 3.40439C9.64193 4.1445 10.5174 4.62778 11.5 4.62778C12.4826 4.62778 13.3581 4.1445 13.9076 3.40439C14.3802 2.76468 15.1114 2.36778 15.903 2.36778H18.7693C20.0755 2.36778 21.1373 3.43007 21.1373 4.74218V35.9877Z" fill="#FFC93E"/>
<path d="M10.2403 14.6227H12.7573V12.0989H10.2403V14.6227Z" fill="#FFC93E"/>
<path d="M5.20858 14.6227H7.72559V12.0989H5.20858V14.6227Z" fill="#FFC93E"/>
<path d="M12.7594 12.0966H15.2764V9.57273H12.7594V12.0966Z" fill="#FFC93E"/>
<path d="M7.72323 12.0966H10.2402V9.57273H7.72323V12.0966Z" fill="#FFC93E"/>
<path d="M15.274 14.6227H17.791V12.0989H15.274V14.6227Z" fill="#FFC93E"/>
</g>
<defs>
<clipPath id="clip0_4889_29939">
<rect width="23" height="41" fill="white" transform="translate(0 0.5)"/>
</clipPath>
</defs>
</svg>
