<svg width="205" height="72" viewBox="0 0 205 72" fill="none" xmlns="http://www.w3.org/2000/svg">
<path d="M9.11942 4.75136L4.84619 4.75034L4.84722 1.19615L17.4358 1.19872L17.4347 4.7529L13.1753 4.75188L13.1723 19.1039L9.11634 19.1029L9.11942 4.75136Z" fill="#FFC93E"/>
<path d="M26.7013 1.20128L30.73 1.2023L37.7938 19.1101L33.4663 19.1091L32.165 15.5139L25.2739 15.5123L23.9573 19.107L19.6165 19.106L26.7013 1.20128ZM26.631 11.9587L30.8228 11.9597L28.7487 6.08541H28.7082L26.631 11.9587Z" fill="#FFC93E"/>
<path d="M53.0566 9.48174L59.7831 19.1147L54.4926 19.1137L50.3567 12.8591L46.3536 19.1121L41.47 19.1111L47.8209 9.48123L42.0573 1.20486L47.212 1.20589L50.5207 6.36164L53.791 1.20742L58.7289 1.20845L53.0566 9.48174Z" fill="#FFC93E"/>
<path d="M65.0362 1.20947L69.0922 1.2105L69.0881 19.1167L65.0321 19.1157L65.0362 1.20947Z" fill="#FFC93E"/>
<path d="M4.80518 71.6454V31.2369H10.0004V35.8847H10.1096C12.6797 32.2214 16.5619 30.4169 20.8818 30.4169C29.9038 30.4169 36.5745 37.4161 36.5745 46.7661C36.5745 55.2962 29.9582 62.2954 21.2641 62.2954C16.6711 62.2954 12.5701 60.436 10.6016 57.1555H10.4924V71.6454H4.80518ZM30.8878 46.4381C30.8878 40.9154 26.5137 35.6116 20.4441 35.6116C14.7569 35.6116 10.3827 40.6966 10.3827 46.329C10.3827 52.234 14.7569 57.1007 20.6624 57.1007C26.5137 57.1007 30.8878 52.234 30.8878 46.4381Z" fill="white"/>
<path d="M66.1007 61.5297V56.8275H65.9915C63.859 60.436 60.0311 62.2954 55.7118 62.2954C46.8537 62.2954 39.6357 55.6242 39.6357 46.8758C39.6357 37.1972 46.5801 30.4169 55.4929 30.4169C59.922 30.4169 63.6402 32.0574 65.9915 35.5019H66.1007V31.2369H71.7879V61.5297H66.1007ZM66.2103 46.4381C66.2103 40.5326 61.9453 35.6116 55.6569 35.6116C49.9702 35.6116 45.3229 40.4777 45.3229 46.4381C45.3229 52.1248 49.9702 57.1007 55.6569 57.1007C61.5625 57.1007 66.2103 52.1796 66.2103 46.4381Z" fill="white"/>
<path d="M78.0204 61.5297V31.2369H83.3243V33.971H83.434C84.8013 31.9477 87.1521 30.6357 91.144 30.4169V36.2676C86.223 36.4316 83.7076 39.4389 83.7076 44.5239V61.5297H78.0204Z" fill="white"/>
<path d="M118.867 61.5297V56.8275H118.757C116.624 60.436 112.797 62.2954 108.477 62.2954C99.6192 62.2954 92.4012 55.6242 92.4012 46.8758C92.4012 37.1972 99.3455 30.4169 108.258 30.4169C112.687 30.4169 116.406 32.0574 118.757 35.5019H118.867V31.2369H124.553V61.5297H118.867ZM118.976 46.4381C118.976 40.5326 114.711 35.6116 108.422 35.6116C102.736 35.6116 98.0879 40.4777 98.0879 46.4381C98.0879 52.1248 102.736 57.1007 108.422 57.1007C114.328 57.1007 118.976 52.1796 118.976 46.4381Z" fill="white"/>
<path d="M131.005 0.401779H137.621V61.5297H131.005V0.401779Z" fill="white"/>
<path d="M144.291 0.401779H150.908V61.5297H144.291V0.401779Z" fill="white"/>
<path d="M161.515 48.8443C162.827 53.875 166.819 57.1007 171.467 57.1007C175.021 57.1007 178.356 55.2413 180.106 52.0157H185.792C183.441 58.2492 177.754 62.2954 171.248 62.2954C162.718 62.2954 155.828 54.7493 155.828 46.6569C155.828 37.0881 163.046 30.4169 171.084 30.4169C179.997 30.4169 186.776 37.3069 186.776 46.0004C186.776 46.9301 186.776 47.805 186.612 48.8438H161.515V48.8443ZM181.09 44.4696C180.653 39.3297 176.114 35.6116 171.248 35.6116C166.6 35.6116 161.953 39.2749 161.515 44.4696H181.09Z" fill="white"/>
<path d="M191.37 61.5297V21.0668H197.056V61.5297H191.37Z" fill="white"/>
</svg>
