<svg width="26" height="26" viewBox="0 0 26 26" fill="none" xmlns="http://www.w3.org/2000/svg">
<path fill-rule="evenodd" clip-rule="evenodd" d="M13 2.16667C15.5859 2.16667 18.0658 3.1939 19.8943 5.02238C21.7228 6.85086 22.75 9.33081 22.75 11.9167C22.75 15.2468 20.9343 17.9725 19.0212 19.9279C18.0651 20.8941 17.0222 21.7703 15.9055 22.5453L15.444 22.8594L15.2273 23.0035L14.8189 23.2635L14.4549 23.4856L14.0043 23.7478C13.6982 23.9219 13.3521 24.0135 13 24.0135C12.6479 24.0135 12.3018 23.9219 11.9958 23.7478L11.5451 23.4856L10.9818 23.1389L10.7737 23.0035L10.3296 22.7078C9.12489 21.8924 8.00266 20.9613 6.97883 19.9279C5.06567 17.9703 3.25 15.2468 3.25 11.9167C3.25 9.33081 4.27723 6.85086 6.10571 5.02238C7.93419 3.1939 10.4141 2.16667 13 2.16667ZM13 6.50001C12.7127 6.50001 12.4371 6.61414 12.234 6.81731C12.0308 7.02047 11.9167 7.29602 11.9167 7.58334V13C11.9167 13.2873 12.0309 13.5628 12.2341 13.7659L14.9424 16.4743C15.1467 16.6716 15.4204 16.7808 15.7044 16.7783C15.9885 16.7759 16.2602 16.6619 16.4611 16.4611C16.6619 16.2602 16.7758 15.9885 16.7783 15.7044C16.7808 15.4204 16.6716 15.1467 16.4742 14.9424L14.0833 12.5515V7.58334C14.0833 7.29602 13.9692 7.02047 13.766 6.81731C13.5629 6.61414 13.2873 6.50001 13 6.50001Z" fill="white"  fill-opacity="0.5"/>
</svg>
